# xmcd CD database file
#
# Track frame offsets:
#	150
#	16567
#	42517
#	57942
#	78842
#	94485
#	120692
#	136650
#	159367
#	176525
#	200732
#	222405
#	240352
#	256780
#
# Disc length: 3671 seconds
#
# Revision: 3
# Processed by: cddbd v1.4PL0 Copyright (c) Steve Scherf et al.
# Submitted via: NeoAudio 1.40Release
#
DISCID=b20e550e
DTITLE=Andy Griffith - Just As I Am: 30 Favorite Old Time Hymns
DYEAR=1997
DGENRE=Gospel
TTITLE0=There's Power In The Blood - Down At The Cross (Glory To His Name)
TTITLE1=Jesus, Savior, Pilot Me - All The Way My Savior Leads Me - He Leadeth Me - Take The Name Of Jesus With You - Leaning On The Everlasting Arms
TTITLE2=The Church In The Wildwood
TTITLE3=Just As I Am - Jesus, I Come - I Need Thee Every Hour
TTITLE4=When I Can Read My Title Clear
TTITLE5=Beautiful Isle - Beulah Land - The Unclouded Day
TTITLE6=I'll Fly Away - A New Name Written Down In Glory
TTITLE7=Does Jesus Care - His Eye Is On The Sparrow
TTITLE8=God Will Take Care Of  You - Just A Little Talk With Jesus
TTITLE9=No Not One - 'Tis So Sweet To Trust In Jesus
TTITLE10=What Wondrous Love Is This - Jesus, Lover Of My Soul
TTITLE11=Take Time To Be Holy - Near To The Heart Of God
TTITLE12=It Is No Secret
TTITLE13=Onward, Christian Soldiers - Stand Up, Stand Up For Jesus
EXTD=YEAR: 1997 ID3G: 38
EXTT0=
EXTT1=
EXTT2=
EXTT3=
EXTT4=
EXTT5=
EXTT6=
EXTT7=
EXTT8=
EXTT9=
EXTT10=
EXTT11=
EXTT12=
EXTT13=
PLAYORDER=
